<?xml version="1.0" encoding="UTF-8" standalone="no"?>
<svg
   height="24"
   viewBox="0 -960 960 960"
   width="24"
   version="1.1"
   id="svg1"
   xmlns:xlink="http://www.w3.org/1999/xlink"
   xmlns="http://www.w3.org/2000/svg"
   xmlns:svg="http://www.w3.org/2000/svg">
  <defs
     id="defs1">
    <linearGradient
       id="linearGradient1">
      <stop
         style="stop-color:#a71314;stop-opacity:1;"
         offset="0"
         id="stop1" />
      <stop
         style="stop-color:#000000;stop-opacity:0;"
         offset="1"
         id="stop2" />
    </linearGradient>
    <linearGradient
       xlink:href="#linearGradient1"
       id="linearGradient2"
       x1="80"
       y1="-480"
       x2="880"
       y2="-480"
       gradientUnits="userSpaceOnUse" />
  </defs>
  <path
     d="m 240,-160 q -66,0 -113,-47 -47,-47 -47,-113 v -320 q 0,-66 47,-113 47,-47 113,-47 h 480 q 66,0 113,47 47,47 47,113 v 320 q 0,66 -47,113 -47,47 -113,47 z m 0,-480 h 480 q 22,0 42,5 20,5 38,16 v -21 q 0,-33 -23.5,-56.5 Q 753,-720 720,-720 H 240 q -33,0 -56.5,23.5 Q 160,-673 160,-640 v 21 q 18,-11 38,-16 20,-5 42,-5 z m -74,130 445,108 q 9,2 18,0 9,-2 17,-8 l 139,-116 q -11,-15 -28,-24.5 -17,-9.5 -37,-9.5 H 240 q -26,0 -45.5,13.5 Q 175,-533 166,-510 Z"
     id="path1"
     style="fill:#ab0a52;fill-opacity:1;stroke:url(#linearGradient2)" />
</svg>
